<svg width="25" height="24" viewBox="0 0 25 24" fill="none" xmlns="http://www.w3.org/2000/svg">
<path fill-rule="evenodd" clip-rule="evenodd" d="M1.33192 22.9618H1.2558C1.2558 22.9236 1.23674 22.8663 1.23674 22.847C1.23674 22.828 1.23674 22.7899 1.17955 22.7899H1.06517V22.9618H1.00798V22.5604H1.17955C1.2558 22.5604 1.31285 22.5797 1.31285 22.6559C1.31285 22.7133 1.29379 22.7325 1.27486 22.7514C1.29393 22.7706 1.31285 22.7898 1.31285 22.828V22.9044C1.31285 22.9236 1.31285 22.9236 1.33192 22.9236V22.9618ZM1.2558 22.6751C1.2558 22.6178 1.21768 22.6178 1.19861 22.6178H1.06517V22.7325H1.17955C1.21768 22.7325 1.2558 22.7133 1.2558 22.6751ZM1.57974 22.7515C1.57974 22.5223 1.38924 22.3309 1.14142 22.3309C0.912801 22.3309 0.722168 22.5223 0.722168 22.7515C0.722168 23 0.912801 23.1914 1.14142 23.1914C1.38911 23.1913 1.57974 23 1.57974 22.7515ZM1.52255 22.7515C1.52255 22.9619 1.35112 23.1148 1.14142 23.1148C0.931726 23.1148 0.779358 22.9618 0.779358 22.7515C0.779358 22.5604 0.931864 22.3883 1.14142 22.3883C1.35098 22.3883 1.52255 22.5604 1.52255 22.7515ZM24.9999 15.0277C24.9999 15.6013 24.6379 15.8686 23.9899 15.8686H22.7514V15.295H23.9899C24.1042 15.295 24.1996 15.276 24.2378 15.2379C24.2758 15.1995 24.3139 15.1421 24.3139 15.0658C24.3139 14.9891 24.276 14.9128 24.2378 14.8747C24.1996 14.8363 24.1234 14.8173 24.0091 14.8173C23.4185 14.798 22.6752 14.8363 22.6752 13.9951C22.6752 13.6126 22.9229 13.192 23.5898 13.192H24.8665V13.7656H23.685C23.5709 13.7656 23.4945 13.7656 23.4373 13.8038C23.3801 13.8611 23.3421 13.9185 23.3421 14.0141C23.3421 14.1098 23.3993 14.1671 23.4754 14.2055C23.5518 14.2245 23.6281 14.2436 23.7234 14.2436H24.0663C24.4283 14.2436 24.6571 14.32 24.8096 14.454C24.9237 14.5878 24.9999 14.76 24.9999 15.0277ZM22.313 14.454C22.1605 14.32 21.9317 14.2436 21.5697 14.2436H21.2268C21.1316 14.2436 21.0552 14.2244 20.9791 14.2055C20.9027 14.1671 20.8458 14.1098 20.8458 14.0141C20.8458 13.9185 20.8647 13.8611 20.941 13.8038C20.9982 13.7656 21.0743 13.7656 21.1887 13.7656H22.3702V13.192H21.0935C20.4074 13.192 20.1786 13.6126 20.1786 13.9951C20.1786 14.8361 20.9219 14.798 21.5127 14.8173C21.6269 14.8173 21.7032 14.8363 21.7412 14.8747C21.7792 14.9128 21.8176 14.9891 21.8176 15.0658C21.8176 15.1421 21.7794 15.1995 21.7412 15.2379C21.684 15.276 21.6079 15.295 21.4935 15.295H20.2548V15.8686H21.4935C22.1413 15.8686 22.5035 15.6011 22.5035 15.0277C22.5035 14.76 22.4274 14.5878 22.313 14.454ZM19.8737 15.3144H18.3685V14.779H19.8357V14.2439H18.3685V13.7467H19.8737V13.1923H17.7396V15.8688H19.8737V15.3144ZM17.0535 13.3262C16.8438 13.2114 16.5961 13.1921 16.2721 13.1921H14.805V15.8686H15.4527V14.8936H16.1388C16.3673 14.8936 16.5009 14.9129 16.5962 15.0084C16.7106 15.1421 16.7106 15.3716 16.7106 15.5438V15.8686H17.3393V15.3524C17.3393 15.1039 17.3203 14.9891 17.2441 14.8554C17.1869 14.7787 17.0728 14.6833 16.9203 14.6259C17.0916 14.5688 17.3777 14.3393 17.3777 13.9185C17.3775 13.6128 17.2632 13.4406 17.0535 13.3262ZM13.4328 13.1921H11.3937L10.5743 14.0717L9.79297 13.1921H7.2204V15.8686H9.75499L10.5744 14.9891L11.3557 15.8686H12.5944V14.9703H13.3948C13.9474 14.9703 14.5002 14.8173 14.5002 14.0717C14.5001 13.3452 13.9283 13.1921 13.4328 13.1921ZM16.5389 14.3012C16.4437 14.3393 16.3484 14.3393 16.234 14.3393L15.4527 14.3585V13.7465H16.234C16.3484 13.7465 16.4628 13.7465 16.5389 13.8039C16.6153 13.8423 16.6722 13.9186 16.6722 14.0334C16.6722 14.1482 16.6153 14.2438 16.5389 14.3012ZM13.4328 14.4349H12.5943V13.7465H13.4328C13.6616 13.7465 13.8139 13.8423 13.8139 14.0717C13.8139 14.3012 13.6614 14.4349 13.4328 14.4349ZM10.9745 14.5304L11.9654 13.479V15.6394L10.9745 14.5304ZM9.43091 15.3144H7.84921V14.779H9.25934V14.2439H7.84921V13.7467H9.44997L10.155 14.5305L9.43091 15.3144ZM23.2276 11.2611H22.313L21.1124 9.25365V11.2611H19.8168L19.5688 10.6684H18.235L17.9873 11.2611H17.244C16.9391 11.2611 16.5389 11.1846 16.3104 10.9551C16.1007 10.7258 15.9863 10.4199 15.9863 9.94189C15.9863 9.54039 16.0435 9.17714 16.3292 8.8904C16.5197 8.68001 16.8628 8.58452 17.301 8.58452H17.9108V9.15816H17.301C17.0725 9.15816 16.9389 9.19641 16.8056 9.31116C16.6913 9.42592 16.6341 9.63616 16.6341 9.9229C16.6341 10.2097 16.6913 10.42 16.8056 10.5539C16.9008 10.6494 17.0725 10.6877 17.2438 10.6877H17.5298L18.4444 8.58466H19.3973L20.4644 11.1083V8.58452H21.4554L22.5797 10.439V8.58452H23.2275V11.2611H23.2276ZM15.6624 8.58452H15.0147V11.2611H15.6624V8.58452ZM14.3093 8.69928C14.0996 8.58452 13.8711 8.58452 13.5472 8.58452H12.0797V11.2611H12.7086V10.286H13.3946C13.6233 10.286 13.7758 10.3051 13.871 10.4008C13.9854 10.5346 13.9662 10.7642 13.9662 10.917V11.2611H14.6139V10.7258C14.6139 10.4964 14.595 10.3816 14.4998 10.2478C14.4426 10.1713 14.3282 10.0756 14.1949 10.0184C14.3662 9.94189 14.6523 9.73165 14.6523 9.31102C14.6525 9.00515 14.5189 8.83302 14.3093 8.69928ZM11.6224 10.7068H10.136V10.1714H11.6033V9.61703H10.136V9.13903H11.6224V8.58466H9.4881V11.2613H11.6224V10.7068ZM9.01166 8.58452H7.96359L7.18227 10.4008L6.34376 8.58452H5.31476V11.1081L4.22857 8.58452H3.27582L2.13244 11.2611H2.81844L3.06612 10.6684H4.4L4.64768 11.2611H5.94357V9.15816L6.87726 11.2611H7.42982L8.36364 9.15816V11.2611H9.01152V8.58452H9.01166ZM19.3404 10.0949L18.9019 9.0434L18.4637 10.0949H19.3404ZM13.8139 9.67441C13.7188 9.73179 13.6235 9.73179 13.49 9.73179H12.7086V9.13917H13.4899C13.6042 9.13917 13.7374 9.13917 13.8138 9.17742C13.8899 9.2348 13.9282 9.3113 13.9282 9.42591C13.9282 9.54053 13.8901 9.63602 13.8139 9.67441ZM3.29474 10.0949L3.73306 9.0434L4.17138 10.0949H3.29474ZM24.8476 0.191406H2.11323V9.82728L2.89455 8.04928H4.55237L4.78113 8.48903V8.04928H6.72489L7.16321 9.00515L7.58246 8.04928H13.7758C14.0615 8.04928 14.3092 8.10666 14.4999 8.25953V8.04928H16.1959V8.25953C16.4816 8.10652 16.8436 8.04928 17.263 8.04928H19.7212L19.95 8.48903V8.04928H21.7603L22.0272 8.48903V8.04928H23.7992V11.7965H22.0081L21.6653 11.223V11.7965H19.4355L19.1879 11.1848H18.635L18.3873 11.7965H17.225C16.7676 11.7965 16.4245 11.6818 16.196 11.5672V11.7965H13.4328V10.9361C13.4328 10.8214 13.4138 10.8023 13.3375 10.8023H13.2423V11.7964H7.9064V11.3184L7.71591 11.7964H6.59159L6.40109 11.3375V11.7964H4.24763L4.01901 11.1846H3.46631L3.21863 11.7964H2.11323V23.0956H24.8476V16.2319C24.5999 16.3466 24.2568 16.404 23.9138 16.404H22.2558V16.1745C22.0653 16.3276 21.7222 16.404 21.3984 16.404H16.1768V15.5438C16.1768 15.429 16.1579 15.429 16.0624 15.429H15.9673V16.404H14.2521V15.3908C13.9665 15.5245 13.6424 15.5245 13.3566 15.5245H13.1659V16.404H11.0698L10.5744 15.8304L10.0219 16.404H6.64864V12.6569H10.0788L10.5743 13.2303L11.1079 12.6569H13.4138C13.6804 12.6569 14.1188 12.695 14.3093 12.8861V12.6569H16.3673C16.577 12.6569 16.9773 12.695 17.244 12.8861V12.6569H20.3502V12.8863C20.5217 12.7333 20.8458 12.657 21.1315 12.657H22.8655V12.8863C23.0563 12.7525 23.3229 12.657 23.6661 12.657H24.8476V0.191406Z" fill="white"/>
</svg>
