<svg width="49" height="24" viewBox="0 0 49 24" fill="none" xmlns="http://www.w3.org/2000/svg">
<path d="M10.3446 7.23699C10.813 7.08084 11.3128 6.99756 11.8312 6.99756C14.1008 6.99756 15.9956 8.60904 16.4287 10.7514L19.6457 10.0956C18.9086 6.45624 15.6895 3.71631 11.8312 3.71631C10.9463 3.71631 10.0989 3.85997 9.30347 4.12647L10.3446 7.23699Z" fill="white"/>
<path d="M6.54882 17.6595L8.7247 15.2006C7.7544 14.3407 7.14224 13.0853 7.14224 11.6862C7.14224 10.2891 7.7544 9.0337 8.7247 8.17591L6.54882 5.71497C4.89973 7.17654 3.85864 9.3106 3.85864 11.6862C3.85864 14.0638 4.89973 16.1979 6.54882 17.6595Z" fill="white"/>
<path d="M16.4287 12.6273C15.9935 14.7676 14.1008 16.377 11.8333 16.377C11.3128 16.377 10.811 16.2937 10.3446 16.1355L9.30347 19.2502C10.0989 19.5146 10.9484 19.6583 11.8333 19.6583C15.6874 19.6583 18.9044 16.9225 19.6457 13.2873L16.4287 12.6273Z" fill="white"/>
<path d="M22.4586 15.3026C22.3524 15.1319 22.2108 14.8591 22.1233 14.6572C21.6132 13.4746 21.5903 12.2504 22.0192 11.0761C22.4919 9.78736 23.3956 8.80257 24.5637 8.29872C26.0316 7.66787 27.6536 7.79071 29.0612 8.6256C29.9544 9.13777 30.5874 9.92894 31.0684 11.0491C31.1288 11.1927 31.1829 11.3447 31.2371 11.4759L22.4586 15.3026ZM25.3903 10.1996C24.3471 10.6472 23.8099 11.6258 23.9223 12.7709L28.3366 10.87C27.5766 9.97891 26.5896 9.68326 25.3903 10.1996ZM28.8863 14.3345C28.8842 14.3345 28.8842 14.3366 28.8842 14.3366L28.7926 14.2741C28.5281 14.7009 28.1179 15.0486 27.5995 15.2735C26.6125 15.7024 25.6984 15.592 25.0405 15.0153L24.9801 15.1069C24.9801 15.1069 24.9801 15.1048 24.978 15.1048L23.8578 16.7808C24.1368 16.9745 24.4346 17.1369 24.7469 17.268C25.9837 17.7823 27.2497 17.7573 28.4969 17.216C29.3985 16.8246 30.1064 16.2291 30.5895 15.4733L28.8863 14.3345ZM34.3041 5.83362V15.1485L35.7533 15.7357L34.9308 17.6553L33.3317 16.989C32.9736 16.8329 32.7279 16.5955 32.5447 16.327C32.3677 16.0542 32.2365 15.6774 32.2365 15.1735V5.83362H34.3041ZM38.0562 12.7771C38.0562 11.9839 38.4081 11.2718 38.9619 10.7888L37.4753 9.13153C36.4675 10.0226 35.8324 11.3239 35.8324 12.773C35.8303 14.2241 36.4654 15.5275 37.4711 16.4186L38.9557 14.7613C38.4039 14.2762 38.0562 13.5683 38.0562 12.7771ZM40.6964 15.4192C40.4049 15.4192 40.1217 15.3692 39.8594 15.2818L39.1493 17.3909C39.6345 17.5533 40.153 17.6428 40.6943 17.6428C43.0472 17.6449 45.0107 15.9751 45.4667 13.7578L43.2846 13.3122C43.0368 14.5177 41.9728 15.4213 40.6964 15.4192ZM40.7026 7.91147C40.1634 7.91147 39.6449 7.99891 39.1598 8.15923L39.8635 10.2704C40.128 10.1829 40.4091 10.1351 40.7006 10.1351C41.979 10.1371 43.0451 11.0449 43.2866 12.2525L45.4688 11.8111C45.0211 9.58957 43.0576 7.91355 40.7026 7.91147Z" fill="white"/>
</svg>
